<svg xmlns="http://www.w3.org/2000/svg" xmlns:xlink="http://www.w3.org/1999/xlink" contentStyleType="text/css" data-diagram-type="CLASS" height="760px" preserveAspectRatio="none" style="width:2519px;height:760px;background:#FFFFFF;" version="1.1" viewBox="0 0 2519 760" width="2519px" zoomAndPan="magnify"><defs/><g><!--class CHARGE_PROFILES--><g class="entity" data-entity="CHARGE_PROFILES" data-source-line="5" data-uid="ent0002" id="entity_CHARGE_PROFILES"><rect fill="#FFFFFF" height="141.7813" rx="2.5" ry="2.5" style="stroke:#000000;stroke-width:1;" width="225.1377" x="569" y="77"/><ellipse cx="611.2163" cy="91" fill="#FFFFFF" rx="9" ry="9" style="stroke:#000000;stroke-width:1;"/><path d="M614.1851,96.6406 Q613.6069,96.9375 612.9663,97.0781 Q612.3257,97.2344 611.6226,97.2344 Q609.1226,97.2344 607.7944,95.5938 Q606.4819,93.9375 606.4819,90.8125 Q606.4819,87.6875 607.7944,86.0313 Q609.1226,84.375 611.6226,84.375 Q612.3257,84.375 612.9663,84.5313 Q613.6226,84.6875 614.1851,84.9844 L614.1851,87.7031 Q613.5601,87.125 612.9663,86.8594 Q612.3726,86.5781 611.7476,86.5781 Q610.4038,86.5781 609.7163,87.6563 Q609.0288,88.7188 609.0288,90.8125 Q609.0288,92.9063 609.7163,93.9844 Q610.4038,95.0469 611.7476,95.0469 Q612.3726,95.0469 612.9663,94.7813 Q613.5601,94.5 614.1851,93.9219 L614.1851,96.6406 Z " fill="#000000"/><text fill="#000000" font-family="Verdana" font-size="14" lengthAdjust="spacing" textLength="133.2051" x="628.7163" y="95.8467">CHARGE_PROFILES</text><line style="stroke:#000000;stroke-width:1;" x1="570" x2="793.1377" y1="105" y2="105"/><text fill="#000000" font-family="Verdana" font-size="14" lengthAdjust="spacing" textLength="197.3877" x="575" y="121.9951">CREATION_TIME: timestamp</text><text fill="#000000" font-family="Verdana" font-size="14" lengthAdjust="spacing" textLength="63.9912" x="575" y="138.292">ID: bigint</text><line style="stroke:#000000;stroke-width:1;" x1="570" x2="793.1377" y1="145.5938" y2="145.5938"/><text fill="#000000" font-family="Verdana" font-size="14" lengthAdjust="spacing" textLength="213.1377" x="575" y="162.5889">CHARGE_COST: numeric(38,2)</text><text fill="#000000" font-family="Verdana" font-size="14" lengthAdjust="spacing" textLength="211.6064" x="575" y="178.8857">CHARGE_RATE: numeric(38,2)</text><text fill="#000000" font-family="Verdana" font-size="14" lengthAdjust="spacing" textLength="204.5313" x="575" y="195.1826">INFO: character varying(255)</text><text fill="#000000" font-family="Verdana" font-size="14" lengthAdjust="spacing" textLength="208.7354" x="575" y="211.4795">TITLE: character varying(255)</text></g><!--class CUSTOMERS--><g class="entity" data-entity="CUSTOMERS" data-source-line="13" data-uid="ent0003" id="entity_CUSTOMERS"><rect fill="#FFFFFF" height="141.7813" rx="2.5" ry="2.5" style="stroke:#000000;stroke-width:1;" width="421.3086" x="428" y="603"/><ellipse cx="590.8945" cy="617" fill="#FFFFFF" rx="9" ry="9" style="stroke:#000000;stroke-width:1;"/><path d="M593.8633,622.6406 Q593.2852,622.9375 592.6445,623.0781 Q592.0039,623.2344 591.3008,623.2344 Q588.8008,623.2344 587.4727,621.5938 Q586.1602,619.9375 586.1602,616.8125 Q586.1602,613.6875 587.4727,612.0313 Q588.8008,610.375 591.3008,610.375 Q592.0039,610.375 592.6445,610.5313 Q593.3008,610.6875 593.8633,610.9844 L593.8633,613.7031 Q593.2383,613.125 592.6445,612.8594 Q592.0508,612.5781 591.4258,612.5781 Q590.082,612.5781 589.3945,613.6563 Q588.707,614.7188 588.707,616.8125 Q588.707,618.9063 589.3945,619.9844 Q590.082,621.0469 591.4258,621.0469 Q592.0508,621.0469 592.6445,620.7813 Q593.2383,620.5 593.8633,619.9219 L593.8633,622.6406 Z " fill="#000000"/><text fill="#000000" font-family="Verdana" font-size="14" lengthAdjust="spacing" textLength="88.0195" x="608.3945" y="621.8467">CUSTOMERS</text><line style="stroke:#000000;stroke-width:1;" x1="429" x2="848.3086" y1="631" y2="631"/><text fill="#000000" font-family="Verdana" font-size="14" lengthAdjust="spacing" textLength="277.9561" x="434" y="647.9951">ACCOUNT_CREATION_DATE: timestamp</text><text fill="#000000" font-family="Verdana" font-size="14" lengthAdjust="spacing" textLength="63.9912" x="434" y="664.292">ID: bigint</text><line style="stroke:#000000;stroke-width:1;" x1="429" x2="848.3086" y1="671.5938" y2="671.5938"/><text fill="#000000" font-family="Verdana" font-size="14" lengthAdjust="spacing" textLength="409.3086" x="434" y="688.5889">CUSTOMER_STATUS: enum('blacklist', 'pending', 'verified')</text><text fill="#000000" font-family="Verdana" font-size="14" lengthAdjust="spacing" textLength="211.832" x="434" y="704.8857">NAME: character varying(255)</text><text fill="#000000" font-family="Verdana" font-size="14" lengthAdjust="spacing" textLength="288.1416" x="434" y="721.1826">PHONE_NUMBER: character varying(255)</text><text fill="#000000" font-family="Verdana" font-size="14" lengthAdjust="spacing" textLength="247.6934" x="434" y="737.4795">SUR_NAME: character varying(255)</text></g><!--class CUSTOMER_HEALTH_REPORTS--><g class="entity" data-entity="CUSTOMER_HEALTH_REPORTS" data-source-line="21" data-uid="ent0004" id="entity_CUSTOMER_HEALTH_REPORTS"><rect fill="#FFFFFF" height="158.0781" rx="2.5" ry="2.5" style="stroke:#000000;stroke-width:1;" width="542.6602" x="12" y="360.5"/><ellipse cx="172.4985" cy="374.5" fill="#FFFFFF" rx="9" ry="9" style="stroke:#000000;stroke-width:1;"/><path d="M175.4673,380.1406 Q174.8892,380.4375 174.2485,380.5781 Q173.6079,380.7344 172.9048,380.7344 Q170.4048,380.7344 169.0767,379.0938 Q167.7642,377.4375 167.7642,374.3125 Q167.7642,371.1875 169.0767,369.5313 Q170.4048,367.875 172.9048,367.875 Q173.6079,367.875 174.2485,368.0313 Q174.9048,368.1875 175.4673,368.4844 L175.4673,371.2031 Q174.8423,370.625 174.2485,370.3594 Q173.6548,370.0781 173.0298,370.0781 Q171.686,370.0781 170.9985,371.1563 Q170.311,372.2188 170.311,374.3125 Q170.311,376.4063 170.9985,377.4844 Q171.686,378.5469 173.0298,378.5469 Q173.6548,378.5469 174.2485,378.2813 Q174.8423,378 175.4673,377.4219 L175.4673,380.1406 Z " fill="#000000"/><text fill="#000000" font-family="Verdana" font-size="14" lengthAdjust="spacing" textLength="214.1631" x="189.9985" y="379.3467">CUSTOMER_HEALTH_REPORTS</text><line style="stroke:#000000;stroke-width:1;" x1="13" x2="553.6602" y1="388.5" y2="388.5"/><text fill="#000000" font-family="Verdana" font-size="14" lengthAdjust="spacing" textLength="115.5889" x="18" y="405.4951">END_DATE: date</text><text fill="#000000" font-family="Verdana" font-size="14" lengthAdjust="spacing" textLength="213.9648" x="18" y="421.792">PDF_DATA: binary large object</text><text fill="#000000" font-family="Verdana" font-size="14" lengthAdjust="spacing" textLength="152.2773" x="18" y="438.0889">REVISION_DATE: date</text><text fill="#000000" font-family="Verdana" font-size="14" lengthAdjust="spacing" textLength="150.124" x="18" y="454.3857">CUSTOMER_ID: bigint</text><text fill="#000000" font-family="Verdana" font-size="14" lengthAdjust="spacing" textLength="63.9912" x="18" y="470.6826">ID: bigint</text><line style="stroke:#000000;stroke-width:1;" x1="13" x2="553.6602" y1="477.9844" y2="477.9844"/><text fill="#000000" font-family="Verdana" font-size="14" lengthAdjust="spacing" textLength="530.6602" x="18" y="494.9795">CUSTOMER_HEALTH_REPORT_STATUS: enum('expired', 'pending', 'verified')</text><text fill="#000000" font-family="Verdana" font-size="14" lengthAdjust="spacing" textLength="247.6592" x="18" y="511.2764">FILE_NAME: character varying(255)</text></g><!--class MACHINES--><g class="entity" data-entity="MACHINES" data-source-line="30" data-uid="ent0005" id="entity_MACHINES"><rect fill="#FFFFFF" height="141.7813" rx="2.5" ry="2.5" style="stroke:#000000;stroke-width:1;" width="845.6904" x="1211.5" y="603"/><ellipse cx="1593.4487" cy="617" fill="#FFFFFF" rx="9" ry="9" style="stroke:#000000;stroke-width:1;"/><path d="M1596.4175,622.6406 Q1595.8394,622.9375 1595.1987,623.0781 Q1594.5581,623.2344 1593.855,623.2344 Q1591.355,623.2344 1590.0269,621.5938 Q1588.7144,619.9375 1588.7144,616.8125 Q1588.7144,613.6875 1590.0269,612.0313 Q1591.355,610.375 1593.855,610.375 Q1594.5581,610.375 1595.1987,610.5313 Q1595.855,610.6875 1596.4175,610.9844 L1596.4175,613.7031 Q1595.7925,613.125 1595.1987,612.8594 Q1594.605,612.5781 1593.98,612.5781 Q1592.6362,612.5781 1591.9487,613.6563 Q1591.2612,614.7188 1591.2612,616.8125 Q1591.2612,618.9063 1591.9487,619.9844 Q1592.6362,621.0469 1593.98,621.0469 Q1594.605,621.0469 1595.1987,620.7813 Q1595.7925,620.5 1596.4175,619.9219 L1596.4175,622.6406 Z " fill="#000000"/><text fill="#000000" font-family="Verdana" font-size="14" lengthAdjust="spacing" textLength="74.293" x="1610.9487" y="621.8467">MACHINES</text><line style="stroke:#000000;stroke-width:1;" x1="1212.5" x2="2056.1904" y1="631" y2="631"/><text fill="#000000" font-family="Verdana" font-size="14" lengthAdjust="spacing" textLength="186.6826" x="1217.5" y="647.9951">IMAGE: binary large object</text><text fill="#000000" font-family="Verdana" font-size="14" lengthAdjust="spacing" textLength="230.1045" x="1217.5" y="664.292">LAST_MAINTENANCE_DATE: date</text><text fill="#000000" font-family="Verdana" font-size="14" lengthAdjust="spacing" textLength="298.0332" x="1217.5" y="680.5889">MAINTENANCE_MONTHLY_PERIOD: integer</text><text fill="#000000" font-family="Verdana" font-size="14" lengthAdjust="spacing" textLength="63.9912" x="1217.5" y="696.8857">ID: bigint</text><line style="stroke:#000000;stroke-width:1;" x1="1212.5" x2="2056.1904" y1="704.1875" y2="704.1875"/><text fill="#000000" font-family="Verdana" font-size="14" lengthAdjust="spacing" textLength="833.6904" x="1217.5" y="721.1826">MACHINE_STATUS: enum('available', 'active', 'on_repair_service', 'canceled', 'expired', 'no_purchase_yet', 'suspended')</text><text fill="#000000" font-family="Verdana" font-size="14" lengthAdjust="spacing" textLength="211.832" x="1217.5" y="737.4795">NAME: character varying(255)</text></g><!--class MACHINE_MAINTENANCES--><g class="entity" data-entity="MACHINE_MAINTENANCES" data-source-line="38" data-uid="ent0006" id="entity_MACHINE_MAINTENANCES"><rect fill="#FFFFFF" height="141.7813" rx="2.5" ry="2.5" style="stroke:#000000;stroke-width:1;" width="216.5313" x="1554" y="368.5"/><ellipse cx="1568.9978" cy="382.5" fill="#FFFFFF" rx="9" ry="9" style="stroke:#000000;stroke-width:1;"/><path d="M1571.9665,388.1406 Q1571.3884,388.4375 1570.7478,388.5781 Q1570.1071,388.7344 1569.404,388.7344 Q1566.904,388.7344 1565.5759,387.0938 Q1564.2634,385.4375 1564.2634,382.3125 Q1564.2634,379.1875 1565.5759,377.5313 Q1566.904,375.875 1569.404,375.875 Q1570.1071,375.875 1570.7478,376.0313 Q1571.404,376.1875 1571.9665,376.4844 L1571.9665,379.2031 Q1571.3415,378.625 1570.7478,378.3594 Q1570.154,378.0781 1569.529,378.0781 Q1568.1853,378.0781 1567.4978,379.1563 Q1566.8103,380.2188 1566.8103,382.3125 Q1566.8103,384.4063 1567.4978,385.4844 Q1568.1853,386.5469 1569.529,386.5469 Q1570.154,386.5469 1570.7478,386.2813 Q1571.3415,386 1571.9665,385.4219 L1571.9665,388.1406 Z " fill="#000000"/><text fill="#000000" font-family="Verdana" font-size="14" lengthAdjust="spacing" textLength="184.0918" x="1581.4417" y="387.3467">MACHINE_MAINTENANCES</text><line style="stroke:#000000;stroke-width:1;" x1="1555" x2="1769.5313" y1="396.5" y2="396.5"/><text fill="#000000" font-family="Verdana" font-size="14" lengthAdjust="spacing" textLength="157.5889" x="1560" y="413.4951">CREATION_DATE: date</text><text fill="#000000" font-family="Verdana" font-size="14" lengthAdjust="spacing" textLength="136.3975" x="1560" y="429.792">MACHINE_ID: bigint</text><text fill="#000000" font-family="Verdana" font-size="14" lengthAdjust="spacing" textLength="158.5527" x="1560" y="446.0889">MAINTAINER_ID: bigint</text><text fill="#000000" font-family="Verdana" font-size="14" lengthAdjust="spacing" textLength="63.9912" x="1560" y="462.3857">ID: bigint</text><line style="stroke:#000000;stroke-width:1;" x1="1555" x2="1769.5313" y1="469.6875" y2="469.6875"/><text fill="#000000" font-family="Verdana" font-size="14" lengthAdjust="spacing" textLength="146.8359" x="1560" y="486.6826">COST: numeric(38,2)</text><text fill="#000000" font-family="Verdana" font-size="14" lengthAdjust="spacing" textLength="204.5313" x="1560" y="502.9795">INFO: character varying(255)</text></g><!--class MACHINE_REPAIRS--><g class="entity" data-entity="MACHINE_REPAIRS" data-source-line="46" data-uid="ent0007" id="entity_MACHINE_REPAIRS"><rect fill="#FFFFFF" height="190.6719" rx="2.5" ry="2.5" style="stroke:#000000;stroke-width:1;" width="260.9033" x="1884" y="344"/><ellipse cx="1944.8306" cy="358" fill="#FFFFFF" rx="9" ry="9" style="stroke:#000000;stroke-width:1;"/><path d="M1947.7993,363.6406 Q1947.2212,363.9375 1946.5806,364.0781 Q1945.9399,364.2344 1945.2368,364.2344 Q1942.7368,364.2344 1941.4087,362.5938 Q1940.0962,360.9375 1940.0962,357.8125 Q1940.0962,354.6875 1941.4087,353.0313 Q1942.7368,351.375 1945.2368,351.375 Q1945.9399,351.375 1946.5806,351.5313 Q1947.2368,351.6875 1947.7993,351.9844 L1947.7993,354.7031 Q1947.1743,354.125 1946.5806,353.8594 Q1945.9868,353.5781 1945.3618,353.5781 Q1944.0181,353.5781 1943.3306,354.6563 Q1942.6431,355.7188 1942.6431,357.8125 Q1942.6431,359.9063 1943.3306,360.9844 Q1944.0181,362.0469 1945.3618,362.0469 Q1945.9868,362.0469 1946.5806,361.7813 Q1947.1743,361.5 1947.7993,360.9219 L1947.7993,363.6406 Z " fill="#000000"/><text fill="#000000" font-family="Verdana" font-size="14" lengthAdjust="spacing" textLength="131.7422" x="1962.3306" y="362.8467">MACHINE_REPAIRS</text><line style="stroke:#000000;stroke-width:1;" x1="1885" x2="2143.9033" y1="372" y2="372"/><text fill="#000000" font-family="Verdana" font-size="14" lengthAdjust="spacing" textLength="160.8496" x="1890" y="388.9951">COMPLETE_DATE: date</text><text fill="#000000" font-family="Verdana" font-size="14" lengthAdjust="spacing" textLength="248.9033" x="1890" y="405.292">ESTIMATED_RETURN_DAYS: integer</text><text fill="#000000" font-family="Verdana" font-size="14" lengthAdjust="spacing" textLength="171.2949" x="1890" y="421.5889">IS_COMPLETED: boolean</text><text fill="#000000" font-family="Verdana" font-size="14" lengthAdjust="spacing" textLength="122.2471" x="1890" y="437.8857">SENT_DATE: date</text><text fill="#000000" font-family="Verdana" font-size="14" lengthAdjust="spacing" textLength="136.3975" x="1890" y="454.1826">MACHINE_ID: bigint</text><text fill="#000000" font-family="Verdana" font-size="14" lengthAdjust="spacing" textLength="158.5527" x="1890" y="470.4795">MAINTAINER_ID: bigint</text><text fill="#000000" font-family="Verdana" font-size="14" lengthAdjust="spacing" textLength="63.9912" x="1890" y="486.7764">ID: bigint</text><line style="stroke:#000000;stroke-width:1;" x1="1885" x2="2143.9033" y1="494.0781" y2="494.0781"/><text fill="#000000" font-family="Verdana" font-size="14" lengthAdjust="spacing" textLength="146.8359" x="1890" y="511.0732">COST: numeric(38,2)</text><text fill="#000000" font-family="Verdana" font-size="14" lengthAdjust="spacing" textLength="204.5313" x="1890" y="527.3701">INFO: character varying(255)</text></g><!--class SUBSCRIPTIONS--><g class="entity" data-entity="SUBSCRIPTIONS" data-source-line="57" data-uid="ent0008" id="entity_SUBSCRIPTIONS"><rect fill="#FFFFFF" height="125.4844" rx="2.5" ry="2.5" style="stroke:#000000;stroke-width:1;" width="773.2842" x="590" y="377"/><ellipse cx="916.5127" cy="391" fill="#FFFFFF" rx="9" ry="9" style="stroke:#000000;stroke-width:1;"/><path d="M919.4814,396.6406 Q918.9033,396.9375 918.2627,397.0781 Q917.6221,397.2344 916.9189,397.2344 Q914.4189,397.2344 913.0908,395.5938 Q911.7783,393.9375 911.7783,390.8125 Q911.7783,387.6875 913.0908,386.0313 Q914.4189,384.375 916.9189,384.375 Q917.6221,384.375 918.2627,384.5313 Q918.9189,384.6875 919.4814,384.9844 L919.4814,387.7031 Q918.8564,387.125 918.2627,386.8594 Q917.6689,386.5781 917.0439,386.5781 Q915.7002,386.5781 915.0127,387.6563 Q914.3252,388.7188 914.3252,390.8125 Q914.3252,392.9063 915.0127,393.9844 Q915.7002,395.0469 917.0439,395.0469 Q917.6689,395.0469 918.2627,394.7813 Q918.8564,394.5 919.4814,393.9219 L919.4814,396.6406 Z " fill="#000000"/><text fill="#000000" font-family="Verdana" font-size="14" lengthAdjust="spacing" textLength="112.7588" x="934.0127" y="395.8467">SUBSCRIPTIONS</text><line style="stroke:#000000;stroke-width:1;" x1="591" x2="1362.2842" y1="405" y2="405"/><text fill="#000000" font-family="Verdana" font-size="14" lengthAdjust="spacing" textLength="115.5889" x="596" y="421.9951">END_DATE: date</text><text fill="#000000" font-family="Verdana" font-size="14" lengthAdjust="spacing" textLength="283.4727" x="596" y="438.292">LAST_SUBSCRIPTION_START_DATE: date</text><text fill="#000000" font-family="Verdana" font-size="14" lengthAdjust="spacing" textLength="150.124" x="596" y="454.5889">CUSTOMER_ID: bigint</text><text fill="#000000" font-family="Verdana" font-size="14" lengthAdjust="spacing" textLength="63.9912" x="596" y="470.8857">ID: bigint</text><line style="stroke:#000000;stroke-width:1;" x1="591" x2="1362.2842" y1="478.1875" y2="478.1875"/><text fill="#000000" font-family="Verdana" font-size="14" lengthAdjust="spacing" textLength="761.2842" x="596" y="495.1826">STATUS: enum('available', 'active', 'on_repair_service', 'canceled', 'expired', 'no_purchase_yet', 'suspended')</text></g><!--class SUBSCRIPTION_MODELS--><g class="entity" data-entity="SUBSCRIPTION_MODELS" data-source-line="64" data-uid="ent0009" id="entity_SUBSCRIPTION_MODELS"><rect fill="#FFFFFF" height="272.1563" rx="2.5" ry="2.5" style="stroke:#000000;stroke-width:1;" width="294.7549" x="829" y="12"/><ellipse cx="887.4858" cy="26" fill="#FFFFFF" rx="9" ry="9" style="stroke:#000000;stroke-width:1;"/><path d="M890.4546,31.6406 Q889.8765,31.9375 889.2358,32.0781 Q888.5952,32.2344 887.8921,32.2344 Q885.3921,32.2344 884.064,30.5938 Q882.7515,28.9375 882.7515,25.8125 Q882.7515,22.6875 884.064,21.0313 Q885.3921,19.375 887.8921,19.375 Q888.5952,19.375 889.2358,19.5313 Q889.8921,19.6875 890.4546,19.9844 L890.4546,22.7031 Q889.8296,22.125 889.2358,21.8594 Q888.6421,21.5781 888.0171,21.5781 Q886.6733,21.5781 885.9858,22.6563 Q885.2983,23.7188 885.2983,25.8125 Q885.2983,27.9063 885.9858,28.9844 Q886.6733,30.0469 888.0171,30.0469 Q888.6421,30.0469 889.2358,29.7813 Q889.8296,29.5 890.4546,28.9219 L890.4546,31.6406 Z " fill="#000000"/><text fill="#000000" font-family="Verdana" font-size="14" lengthAdjust="spacing" textLength="170.2832" x="904.9858" y="30.8467">SUBSCRIPTION_MODELS</text><line style="stroke:#000000;stroke-width:1;" x1="830" x2="1122.7549" y1="40" y2="40"/><text fill="#000000" font-family="Verdana" font-size="14" lengthAdjust="spacing" textLength="157.5889" x="835" y="56.9951">CREATION_DATE: date</text><text fill="#000000" font-family="Verdana" font-size="14" lengthAdjust="spacing" textLength="137.9082" x="835" y="73.292">END_HOUR: integer</text><text fill="#000000" font-family="Verdana" font-size="14" lengthAdjust="spacing" textLength="171.2949" x="835" y="89.5889">IS_COMPLETED: boolean</text><text fill="#000000" font-family="Verdana" font-size="14" lengthAdjust="spacing" textLength="182.0752" x="835" y="105.8857">IS_TIME_LIMITED: boolean</text><text fill="#000000" font-family="Verdana" font-size="14" lengthAdjust="spacing" textLength="153.1045" x="835" y="122.1826">START_HOUR: integer</text><text fill="#000000" font-family="Verdana" font-size="14" lengthAdjust="spacing" textLength="207.9561" x="835" y="138.4795">SUBSCRIPTION_DAYS: integer</text><text fill="#000000" font-family="Verdana" font-size="14" lengthAdjust="spacing" textLength="282.7549" x="835" y="154.7764">SUBSCRIPTION_MONTH_PERIOD: integer</text><text fill="#000000" font-family="Verdana" font-size="14" lengthAdjust="spacing" textLength="174.8633" x="835" y="171.0732">SUBSCRIPTION_ID: bigint</text><text fill="#000000" font-family="Verdana" font-size="14" lengthAdjust="spacing" textLength="63.9912" x="835" y="187.3701">ID: bigint</text><line style="stroke:#000000;stroke-width:1;" x1="830" x2="1122.7549" y1="194.6719" y2="194.6719"/><text fill="#000000" font-family="Verdana" font-size="14" lengthAdjust="spacing" textLength="213.1377" x="835" y="211.667">CHARGE_COST: numeric(38,2)</text><text fill="#000000" font-family="Verdana" font-size="14" lengthAdjust="spacing" textLength="211.6064" x="835" y="227.9639">CHARGE_RATE: numeric(38,2)</text><text fill="#000000" font-family="Verdana" font-size="14" lengthAdjust="spacing" textLength="222.8379" x="835" y="244.2607">MONTHLY_COST: numeric(38,2)</text><text fill="#000000" font-family="Verdana" font-size="14" lengthAdjust="spacing" textLength="208.7354" x="835" y="260.5576">TITLE: character varying(255)</text><text fill="#000000" font-family="Verdana" font-size="14" lengthAdjust="spacing" textLength="199.3359" x="835" y="276.8545">TOTAL_COST: numeric(38,2)</text></g><!--class USERS--><g class="entity" data-entity="USERS" data-source-line="80" data-uid="ent0010" id="entity_USERS"><rect fill="#FFFFFF" height="158.0781" rx="2.5" ry="2.5" style="stroke:#000000;stroke-width:1;" width="345.5801" x="2092.5" y="595"/><ellipse cx="2238.2432" cy="609" fill="#FFFFFF" rx="9" ry="9" style="stroke:#000000;stroke-width:1;"/><path d="M2241.2119,614.6406 Q2240.6338,614.9375 2239.9932,615.0781 Q2239.3525,615.2344 2238.6494,615.2344 Q2236.1494,615.2344 2234.8213,613.5938 Q2233.5088,611.9375 2233.5088,608.8125 Q2233.5088,605.6875 2234.8213,604.0313 Q2236.1494,602.375 2238.6494,602.375 Q2239.3525,602.375 2239.9932,602.5313 Q2240.6494,602.6875 2241.2119,602.9844 L2241.2119,605.7031 Q2240.5869,605.125 2239.9932,604.8594 Q2239.3994,604.5781 2238.7744,604.5781 Q2237.4307,604.5781 2236.7432,605.6563 Q2236.0557,606.7188 2236.0557,608.8125 Q2236.0557,610.9063 2236.7432,611.9844 Q2237.4307,613.0469 2238.7744,613.0469 Q2239.3994,613.0469 2239.9932,612.7813 Q2240.5869,612.5 2241.2119,611.9219 L2241.2119,614.6406 Z " fill="#000000"/><text fill="#000000" font-family="Verdana" font-size="14" lengthAdjust="spacing" textLength="46.5938" x="2255.7432" y="613.8467">USERS</text><line style="stroke:#000000;stroke-width:1;" x1="2093.5" x2="2437.0801" y1="623" y2="623"/><text fill="#000000" font-family="Verdana" font-size="14" lengthAdjust="spacing" textLength="277.9561" x="2098.5" y="639.9951">ACCOUNT_CREATION_DATE: timestamp</text><text fill="#000000" font-family="Verdana" font-size="14" lengthAdjust="spacing" textLength="63.9912" x="2098.5" y="656.292">ID: bigint</text><line style="stroke:#000000;stroke-width:1;" x1="2093.5" x2="2437.0801" y1="663.5938" y2="663.5938"/><text fill="#000000" font-family="Verdana" font-size="14" lengthAdjust="spacing" textLength="289.3174" x="2098.5" y="680.5889">BACKUP_SECRET: character varying(255)</text><text fill="#000000" font-family="Verdana" font-size="14" lengthAdjust="spacing" textLength="318.165" x="2098.5" y="696.8857">HASHED_PASSWORD: character varying(255)</text><text fill="#000000" font-family="Verdana" font-size="14" lengthAdjust="spacing" textLength="211.832" x="2098.5" y="713.1826">NAME: character varying(255)</text><text fill="#000000" font-family="Verdana" font-size="14" lengthAdjust="spacing" textLength="247.6934" x="2098.5" y="729.4795">SUR_NAME: character varying(255)</text><text fill="#000000" font-family="Verdana" font-size="14" lengthAdjust="spacing" textLength="333.5801" x="2098.5" y="745.7764">USER_ROLE: enum('admin', 'clerk', 'repairman')</text></g><!--class USERS_USER_SESSIONS--><g class="entity" data-entity="USERS_USER_SESSIONS" data-source-line="89" data-uid="ent0011" id="entity_USERS_USER_SESSIONS"><rect fill="#FFFFFF" height="76.5938" rx="2.5" ry="2.5" style="stroke:#000000;stroke-width:1;" width="197.7119" x="2220.5" y="109.5"/><ellipse cx="2234.1289" cy="123.5" fill="#FFFFFF" rx="9" ry="9" style="stroke:#000000;stroke-width:1;"/><path d="M2237.0976,129.1406 Q2236.5195,129.4375 2235.8789,129.5781 Q2235.2382,129.7344 2234.5351,129.7344 Q2232.0351,129.7344 2230.707,128.0938 Q2229.3945,126.4375 2229.3945,123.3125 Q2229.3945,120.1875 2230.707,118.5313 Q2232.0351,116.875 2234.5351,116.875 Q2235.2382,116.875 2235.8789,117.0313 Q2236.5351,117.1875 2237.0976,117.4844 L2237.0976,120.2031 Q2236.4726,119.625 2235.8789,119.3594 Q2235.2851,119.0781 2234.6601,119.0781 Q2233.3164,119.0781 2232.6289,120.1563 Q2231.9414,121.2188 2231.9414,123.3125 Q2231.9414,125.4063 2232.6289,126.4844 Q2233.3164,127.5469 2234.6601,127.5469 Q2235.2851,127.5469 2235.8789,127.2813 Q2236.4726,127 2237.0976,126.4219 L2237.0976,129.1406 Z " fill="#000000"/><text fill="#000000" font-family="Verdana" font-size="14" lengthAdjust="spacing" textLength="168.3145" x="2246.2686" y="128.3467">USERS_USER_SESSIONS</text><line style="stroke:#000000;stroke-width:1;" x1="2221.5" x2="2417.2119" y1="137.5" y2="137.5"/><text fill="#000000" font-family="Verdana" font-size="14" lengthAdjust="spacing" textLength="108.6982" x="2226.5" y="154.4951">USER_ID: bigint</text><text fill="#000000" font-family="Verdana" font-size="14" lengthAdjust="spacing" textLength="185.7119" x="2226.5" y="170.792">USER_SESSIONS_ID: bigint</text><line style="stroke:#000000;stroke-width:1;" x1="2221.5" x2="2417.2119" y1="178.0938" y2="178.0938"/></g><!--class USER_SESSIONS--><g class="entity" data-entity="USER_SESSIONS" data-source-line="93" data-uid="ent0012" id="entity_USER_SESSIONS"><rect fill="#FFFFFF" height="141.7813" rx="2.5" ry="2.5" style="stroke:#000000;stroke-width:1;" width="222.0205" x="2290.5" y="368.5"/><ellipse cx="2340.3999" cy="382.5" fill="#FFFFFF" rx="9" ry="9" style="stroke:#000000;stroke-width:1;"/><path d="M2343.3687,388.1406 Q2342.7905,388.4375 2342.1499,388.5781 Q2341.5093,388.7344 2340.8062,388.7344 Q2338.3062,388.7344 2336.978,387.0938 Q2335.6655,385.4375 2335.6655,382.3125 Q2335.6655,379.1875 2336.978,377.5313 Q2338.3062,375.875 2340.8062,375.875 Q2341.5093,375.875 2342.1499,376.0313 Q2342.8062,376.1875 2343.3687,376.4844 L2343.3687,379.2031 Q2342.7437,378.625 2342.1499,378.3594 Q2341.5562,378.0781 2340.9312,378.0781 Q2339.5874,378.0781 2338.8999,379.1563 Q2338.2124,380.2188 2338.2124,382.3125 Q2338.2124,384.4063 2338.8999,385.4844 Q2339.5874,386.5469 2340.9312,386.5469 Q2341.5562,386.5469 2342.1499,386.2813 Q2342.7437,386 2343.3687,385.4219 L2343.3687,388.1406 Z " fill="#000000"/><text fill="#000000" font-family="Verdana" font-size="14" lengthAdjust="spacing" textLength="114.7207" x="2357.8999" y="387.3467">USER_SESSIONS</text><line style="stroke:#000000;stroke-width:1;" x1="2291.5" x2="2511.5205" y1="396.5" y2="396.5"/><text fill="#000000" font-family="Verdana" font-size="14" lengthAdjust="spacing" textLength="115.5957" x="2296.5" y="413.4951">ACTIVE: boolean</text><text fill="#000000" font-family="Verdana" font-size="14" lengthAdjust="spacing" textLength="175.916" x="2296.5" y="429.792">CREATED_AT: timestamp</text><text fill="#000000" font-family="Verdana" font-size="14" lengthAdjust="spacing" textLength="168.2803" x="2296.5" y="446.0889">EXPIRES_AT: timestamp</text><text fill="#000000" font-family="Verdana" font-size="14" lengthAdjust="spacing" textLength="108.6982" x="2296.5" y="462.3857">USER_ID: bigint</text><text fill="#000000" font-family="Verdana" font-size="14" lengthAdjust="spacing" textLength="63.9912" x="2296.5" y="478.6826">ID: bigint</text><line style="stroke:#000000;stroke-width:1;" x1="2291.5" x2="2511.5205" y1="485.9844" y2="485.9844"/><text fill="#000000" font-family="Verdana" font-size="14" lengthAdjust="spacing" textLength="210.0205" x="2296.5" y="502.9795">TOKEN: character varying(36)</text></g><!--link CUSTOMER_HEALTH_REPORTS to CUSTOMERS--><g class="link" data-entity-1="CUSTOMER_HEALTH_REPORTS" data-entity-2="CUSTOMERS" data-source-line="102" data-uid="lnk13" id="link_CUSTOMER_HEALTH_REPORTS_CUSTOMERS"><path codeLine="102" d="M491.5,518.56 C491.5,545.82 491.5,558.17 491.5,584.77" fill="none" id="CUSTOMER_HEALTH_REPORTS-to-CUSTOMERS" style="stroke:#595959;stroke-width:1;"/><polygon fill="none" points="491.5,602.77,497.5,584.77,485.5,584.77,491.5,602.77" style="stroke:#595959;stroke-width:1;"/><text fill="#000000" font-family="Verdana" font-size="13" lengthAdjust="spacing" textLength="112.0488" x="378.5" y="556.7269">CUSTOMER_ID:ID</text></g><!--link MACHINE_MAINTENANCES to MACHINES--><g class="link" data-entity-1="MACHINE_MAINTENANCES" data-entity-2="MACHINES" data-source-line="103" data-uid="lnk14" id="link_MACHINE_MAINTENANCES_MACHINES"><path codeLine="103" d="M1626.33,510.81 C1626.33,539.92 1626.33,555.51 1626.33,584.62" fill="none" id="MACHINE_MAINTENANCES-to-MACHINES" style="stroke:#595959;stroke-width:1;"/><polygon fill="none" points="1626.33,602.62,1632.33,584.62,1620.33,584.62,1626.33,602.62" style="stroke:#595959;stroke-width:1;"/><text fill="#000000" font-family="Verdana" font-size="13" lengthAdjust="spacing" textLength="99.3027" x="1526.33" y="552.7869">MACHINE_ID:ID</text></g><!--link MACHINE_MAINTENANCES to USERS--><g class="link" data-entity-1="MACHINE_MAINTENANCES" data-entity-2="USERS" data-source-line="104" data-uid="lnk15" id="link_MACHINE_MAINTENANCES_USERS"><path codeLine="104" d="M1698.67,510.85 C1698.67,553.32 1698.67,599 1698.67,599 C1698.67,599 1907.66,599 2074.35,599" fill="none" id="MACHINE_MAINTENANCES-to-USERS" style="stroke:#595959;stroke-width:1;"/><polygon fill="none" points="2092.35,599,2074.35,593,2074.35,605,2092.35,599" style="stroke:#595959;stroke-width:1;"/><text fill="#000000" font-family="Verdana" font-size="13" lengthAdjust="spacing" textLength="119.8755" x="1731.44" y="595.0669">MAINTAINER_ID:ID</text></g><!--link MACHINE_REPAIRS to MACHINES--><g class="link" data-entity-1="MACHINE_REPAIRS" data-entity-2="MACHINES" data-source-line="105" data-uid="lnk16" id="link_MACHINE_REPAIRS_MACHINES"><path codeLine="105" d="M1970.75,535.22 C1970.75,557.76 1970.75,563.4 1970.75,584.66" fill="none" id="MACHINE_REPAIRS-to-MACHINES" style="stroke:#595959;stroke-width:1;"/><polygon fill="none" points="1970.75,602.66,1976.75,584.66,1964.75,584.66,1970.75,602.66" style="stroke:#595959;stroke-width:1;"/><text fill="#000000" font-family="Verdana" font-size="13" lengthAdjust="spacing" textLength="99.3027" x="1870.75" y="565.0069">MACHINE_ID:ID</text></g><!--link MACHINE_REPAIRS to USERS--><g class="link" data-entity-1="MACHINE_REPAIRS" data-entity-2="USERS" data-source-line="106" data-uid="lnk17" id="link_MACHINE_REPAIRS_USERS"><path codeLine="106" d="M2118.75,535.22 C2118.75,554.97 2118.75,557.58 2118.75,576.67" fill="none" id="MACHINE_REPAIRS-to-USERS" style="stroke:#595959;stroke-width:1;"/><polygon fill="none" points="2118.75,594.67,2124.75,576.67,2112.75,576.67,2118.75,594.67" style="stroke:#595959;stroke-width:1;"/><text fill="#000000" font-family="Verdana" font-size="13" lengthAdjust="spacing" textLength="119.8755" x="1998.75" y="561.0169">MAINTAINER_ID:ID</text></g><!--link SUBSCRIPTIONS to CUSTOMERS--><g class="link" data-entity-1="SUBSCRIPTIONS" data-entity-2="CUSTOMERS" data-source-line="107" data-uid="lnk18" id="link_SUBSCRIPTIONS_CUSTOMERS"><path codeLine="107" d="M719.5,502.03 C719.5,533.1 719.5,552.78 719.5,584.94" fill="none" id="SUBSCRIPTIONS-to-CUSTOMERS" style="stroke:#595959;stroke-width:1;"/><polygon fill="none" points="719.5,602.94,725.5,584.94,713.5,584.94,719.5,602.94" style="stroke:#595959;stroke-width:1;"/><text fill="#000000" font-family="Verdana" font-size="13" lengthAdjust="spacing" textLength="112.0488" x="606.5" y="548.5569">CUSTOMER_ID:ID</text></g><!--link SUBSCRIPTION_MODELS to SUBSCRIPTIONS--><g class="link" data-entity-1="SUBSCRIPTION_MODELS" data-entity-2="SUBSCRIPTIONS" data-source-line="108" data-uid="lnk19" id="link_SUBSCRIPTION_MODELS_SUBSCRIPTIONS"><path codeLine="108" d="M976.5,284.36 C976.5,316.66 976.5,331.58 976.5,358.74" fill="none" id="SUBSCRIPTION_MODELS-to-SUBSCRIPTIONS" style="stroke:#595959;stroke-width:1;"/><polygon fill="none" points="976.5,376.74,982.5,358.74,970.5,358.74,976.5,376.74" style="stroke:#595959;stroke-width:1;"/><text fill="#000000" font-family="Verdana" font-size="13" lengthAdjust="spacing" textLength="135.021" x="840.5" y="326.6169">SUBSCRIPTION_ID:ID</text></g><!--link USERS_USER_SESSIONS to USERS--><g class="link" data-entity-1="USERS_USER_SESSIONS" data-entity-2="USERS" data-source-line="109" data-uid="lnk20" id="link_USERS_USER_SESSIONS_USERS"><path codeLine="109" d="M2255.5,186.68 C2255.5,272.44 2255.5,462.04 2255.5,576.67" fill="none" id="USERS_USER_SESSIONS-to-USERS" style="stroke:#595959;stroke-width:1;"/><polygon fill="none" points="2255.5,594.67,2261.5,576.67,2249.5,576.67,2255.5,594.67" style="stroke:#595959;stroke-width:1;"/><text fill="#000000" font-family="Verdana" font-size="13" lengthAdjust="spacing" textLength="73.582" x="2181.5" y="386.7369">USER_ID:ID</text></g><!--link USERS_USER_SESSIONS to USER_SESSIONS--><g class="link" data-entity-1="USERS_USER_SESSIONS" data-entity-2="USER_SESSIONS" data-source-line="110" data-uid="lnk21" id="link_USERS_USER_SESSIONS_USER_SESSIONS"><path codeLine="110" d="M2354.5,186.71 C2354.5,232.94 2354.5,293.19 2354.5,350.41" fill="none" id="USERS_USER_SESSIONS-to-USER_SESSIONS" style="stroke:#595959;stroke-width:1;"/><polygon fill="none" points="2354.5,368.41,2360.5,350.41,2348.5,350.41,2354.5,368.41" style="stroke:#595959;stroke-width:1;"/><text fill="#000000" font-family="Verdana" font-size="13" lengthAdjust="spacing" textLength="145.0947" x="2208.5" y="273.6269">USER_SESSIONS_ID:ID</text></g><!--link USER_SESSIONS to USERS--><g class="link" data-entity-1="USER_SESSIONS" data-entity-2="USERS" data-source-line="111" data-uid="lnk22" id="link_USER_SESSIONS_USERS"><path codeLine="111" d="M2364.5,510.81 C2364.5,537.36 2364.5,549.64 2364.5,576.84" fill="none" id="USER_SESSIONS-to-USERS" style="stroke:#595959;stroke-width:1;"/><polygon fill="none" points="2364.5,594.84,2370.5,576.84,2358.5,576.84,2364.5,594.84" style="stroke:#595959;stroke-width:1;"/><text fill="#000000" font-family="Verdana" font-size="13" lengthAdjust="spacing" textLength="73.582" x="2290.5" y="548.8969">USER_ID:ID</text></g><!--SRC=[nLPTRvim57tFh_2wXxHI-zAgqvOtbxZ5Ab-oJRTgsYn2lDOh0GGqMZNjlyyc8GK2fEagZIWImfVZSyyzrvTtnRrO2916WOn7HPA28W6pf2YI1PZBJ8I5JE9H_Y3ZDCY21OXaB8gdL80aA-wJqIYCWZm7XWd95U8USI-nXIZuFGAWUcYub4r0_BWGcGmFppuUdnxLLWbag6kL8CYmwt26RRLUo8N8Ys2HwZNiNBeJ4DuhFc4XCh0CiYSPtnsUdf-NxpBCB3GKWASJC9DtCYv6Vwe4VCfS6v4rTMWOhkymlg4nBMasQ5IlSCeWy-a429N5uNWM1U539FDYV0p6gOZdQcTzkrG9_f1YFYufED0UfEYPheEuuziNY0p5KP_mNLW3wN8JGOkPd23F9QogM-TYAqtnArNkc0ycYPpfMhXvK0ZzHBjZ9rzlUgbVWvfrhDP056Htod2pdygDEe2W6qoVgrA1RtZN4kvEtuQ6YPtAfzY6LwXtCmjIncs87OOSw1YejUaQggLEi0na5CmYeKLHMSfbUPV4F1Df83EUYsmfm_9X6CIXY5PIrbID4vu-PagbNF0dKRefVyorrfMyTLAswp3JkkKU8jXL2QjinPt8NcArVdtgQLVUw6dcPfzKukpgr6gVPi7ANTL_ZqfgZq9CDYHjpqAiNQeUxeYgCqO5JXK8yudEuPOs5DoL1gQysb8pJ998177PdKYT8Tr-UNtArB-W1i6UrdkTy7QZbQwjHsg3aZQP_s3QbpTfWxtjJf7rbdEbAOGMq7HzqYnxNrdLWXvBtC8sRgzLZTZ3RbM5hQqQkMxvhwM4sg2hptUEFUOoQFKIg- -nipO-tMjKNa3ZslSuHIg83L4q8JLL8tgGqiykcGw5xZhMNZ8PTHgSk5gsTGlC5p8k_Hs9x47VhAo_2EBnqP0Ml8IYYDBdhYmVDQLiHF4Ui1OCD1Y-GGsJbLehdI1h2Os-U9WWkht0t6laT4bnzk6eXsk3tQZlYm6SV7r__ad_ZijFo6ydtq7jQwfvJS11lV_nz63KEMhqrOMxcTlRkBLpTM_ObPkthnAsVZ3NaQk9ixdUXl2BOFSYt9mNO1XvZyfrdS-zk7qa56xxvD7ONJtr6ZKgMxyAinNMmAptS0NU5VyFXFy2]--></g></svg>